<?xml version="1.0" encoding="utf-8"?>
<!-- Generator: Adobe Illustrator 17.1.0, SVG Export Plug-In . SVG Version: 6.00 Build 0)  -->
<!DOCTYPE svg PUBLIC "-//W3C//DTD SVG 1.1//EN" "http://www.w3.org/Graphics/SVG/1.1/DTD/svg11.dtd">
<svg version="1.1" id="Layer_1" xmlns="http://www.w3.org/2000/svg" xmlns:xlink="http://www.w3.org/1999/xlink" x="0px" y="0px"
	 viewBox="0 0 88 22.1" enable-background="new 0 0 88 22.1" xml:space="preserve">
<g>
	<path fill="#006837" d="M10.2,12.1v-0.3c1.3-0.1,1.4-0.3,1.4-1.7V3l-4.1,9.1H7.3l-4-8.8v6.4c0,1.8,0.3,2,1.5,2.1v0.3H1v-0.3
		c1.3-0.1,1.6-0.3,1.6-2.1V3.3c0-1.2-0.2-1.4-1.5-1.5V1.5h3.2l3.7,8l3.5-8h3.2v0.3c-1.2,0-1.4,0.3-1.4,1.5v7c0,1.1,0.2,1.4,1.4,1.5
		v0.3H10.2z"/>
	<path fill="#006837" d="M23.9,12.1h-8.6v-0.3c1.2-0.1,1.4-0.3,1.4-1.5v-7c0-1.2-0.2-1.4-1.4-1.5V1.5h8.5l0.1,2.3h-0.4
		c-0.2-1.4-0.6-1.7-2.5-1.7h-2.1c-0.4,0-0.6,0.1-0.6,0.6v3.5h2.4c1.4,0,1.6-0.3,1.8-1.5h0.4v3.7h-0.4c-0.2-1.3-0.4-1.6-1.8-1.6h-2.4
		v3.9c0,0.7,0.4,0.8,1.6,0.8h0.6c2.3,0,3-0.4,3.7-2.1h0.4L23.9,12.1z"/>
	<path fill="#006837" d="M36.2,6.7C35.2,6.8,35,7,35,8v3.2c-0.9,0.7-2.4,1.1-4.1,1.1c-1.6,0-3.3-0.6-4.3-1.7
		c-0.9-0.9-1.3-2.2-1.3-3.7c0-1.8,0.6-3.2,1.7-4.2c1-0.9,2.3-1.4,3.8-1.4c0.9,0,1.4,0.1,2.1,0.4c0.3,0.1,0.5,0.2,0.7,0.2
		c0.3,0,0.6-0.2,0.7-0.5h0.4l0.1,3.4h-0.4c-0.4-1-0.7-1.4-1.1-1.9C32.8,2.3,32,2,31.1,2c-1.1,0-2,0.4-2.7,1.1
		c-0.8,0.8-1.2,2.3-1.2,3.9c0,3,1.7,4.8,4.2,4.8c1.2,0,2.1-0.4,2.1-1V8.2c0-1.2-0.2-1.4-1.4-1.5V6.5h4.1V6.7z"/>
	<path fill="#006837" d="M43.4,12.1v-0.3c0.6,0,0.7,0,0.9-0.1c0.1-0.1,0.2-0.2,0.2-0.4c0-0.2-0.1-0.7-0.3-1.1l-0.7-1.5h-4.2
		l-0.7,1.8c-0.1,0.2-0.1,0.5-0.1,0.7c0,0.5,0.4,0.7,1.1,0.7v0.3h-3.2v-0.3c0.9-0.1,1.1-0.4,2-2.7l3.3-7.8H42l3.9,9
		c0.4,1,0.7,1.4,1.5,1.5v0.3H43.4z M41.4,3.6L39.6,8h3.7L41.4,3.6z"/>
	<path fill="#006837" d="M58.9,12.1v-0.3c0.6,0,0.7,0,0.9-0.1c0.1-0.1,0.2-0.2,0.2-0.4c0-0.2-0.1-0.7-0.3-1.1L59,8.7h-4.2l-0.7,1.8
		C54,10.7,54,11,54,11.2c0,0.5,0.4,0.7,1.1,0.7v0.3h-3.2v-0.3c0.9-0.1,1.1-0.4,2-2.7l3.3-7.8h0.3l3.9,9c0.4,1,0.7,1.4,1.5,1.5v0.3
		H58.9z M57,3.6L55.1,8h3.7L57,3.6z"/>
	<path fill="#006837" d="M71.5,4.3c-0.4-1.8-0.8-2-2.5-2H68v8.1c0,1.2,0.2,1.4,1.5,1.5v0.3h-4.7v-0.3c1.3-0.1,1.5-0.3,1.5-1.7V2.2
		h-1c-1.7,0-2.1,0.3-2.4,2h-0.4l0.1-2.7h9l0.1,2.7H71.5z"/>
	<path fill="#006837" d="M81.5,12.1v-0.3c1.3-0.1,1.4-0.3,1.4-1.7V3l-4.1,9.1h-0.2l-4-8.8v6.4c0,1.8,0.3,2,1.5,2.1v0.3h-3.7v-0.3
		c1.3-0.1,1.6-0.3,1.6-2.1V3.3c0-1.2-0.2-1.4-1.5-1.5V1.5h3.2l3.7,8l3.5-8h3.2v0.3c-1.2,0-1.4,0.3-1.4,1.5v7c0,1.1,0.2,1.4,1.4,1.5
		v0.3H81.5z"/>
</g>
<g>
	<path fill="#006837" d="M4.1,16.7c0.5,0.1,0.7,0.2,0.9,0.4c0.2,0.2,0.4,0.5,0.4,0.9c0,0.9-0.7,1.4-1.9,1.4H1v-0.1
		c0.6,0,0.7-0.1,0.7-0.7v-3.4c0-0.6-0.1-0.7-0.7-0.7v-0.1h2.2c1.3,0,2,0.5,2,1.3c0,0.3-0.1,0.6-0.3,0.8C4.7,16.5,4.5,16.6,4.1,16.7
		L4.1,16.7z M3.2,16.6c0.8,0,1.2-0.3,1.2-1c0-0.7-0.4-1-1.4-1H2.7c-0.1,0-0.2,0.1-0.2,0.2v1.8H3.2z M2.5,18.8c0,0.3,0.1,0.3,0.5,0.3
		c0.7,0,0.9,0,1.3-0.3c0.2-0.2,0.3-0.4,0.3-0.8c0-0.4-0.1-0.7-0.4-0.8c-0.5-0.3-0.8-0.3-1.7-0.3V18.8z"/>
	<path fill="#006837" d="M9.7,16c-0.2,0-0.3,0.1-0.4,0.4l-1.2,3.2c-0.4,1.1-0.8,1.5-1.4,1.5c-0.3,0-0.5-0.2-0.5-0.4
		c0-0.2,0.1-0.4,0.3-0.4c0.1,0,0.3,0,0.4,0.1c0.1,0,0.2,0.1,0.2,0.1c0.1,0,0.3-0.2,0.4-0.3c0.2-0.2,0.3-0.7,0.3-0.8
		c0-0.1-0.2-0.5-0.3-0.8l-1-2.2c-0.1-0.2-0.2-0.2-0.4-0.3v-0.1h1.6V16c-0.3,0-0.4,0.1-0.4,0.2c0,0.1,0.1,0.2,0.1,0.3l0.9,1.9L9,16.4
		c0-0.1,0-0.1,0-0.1C9,16.1,8.9,16,8.7,16v-0.1h1V16z"/>
	<path fill="#006837" d="M16.4,19.4v-0.1c0.6,0,0.7-0.2,0.7-0.8V15l-2,4.4H15l-2-4.3v3.1c0,0.9,0.1,1,0.7,1v0.1h-1.8v-0.1
		c0.6,0,0.8-0.2,0.8-1v-3.1c0-0.6-0.1-0.7-0.7-0.7v-0.1h1.5l1.8,3.9l1.7-3.9h1.5v0.1c-0.6,0-0.7,0.1-0.7,0.7v3.4
		c0,0.5,0.1,0.7,0.7,0.7v0.1H16.4z"/>
	<path fill="#006837" d="M23,19.4h-4.2v-0.1c0.6,0,0.7-0.1,0.7-0.7v-3.4c0-0.6-0.1-0.7-0.7-0.7v-0.1h4.1l0,1.1h-0.2
		c-0.1-0.7-0.3-0.8-1.2-0.8h-1c-0.2,0-0.3,0-0.3,0.3v1.7h1.2c0.7,0,0.8-0.1,0.9-0.7h0.2v1.8h-0.2c-0.1-0.7-0.2-0.8-0.9-0.8h-1.2v1.9
		c0,0.3,0.2,0.4,0.8,0.4h0.3c1.1,0,1.4-0.2,1.8-1h0.2L23,19.4z"/>
	<path fill="#006837" d="M28.9,16.8c-0.4,0-0.5,0.1-0.5,0.6V19c-0.4,0.3-1.2,0.5-2,0.5c-0.8,0-1.6-0.3-2.1-0.8
		c-0.4-0.5-0.6-1.1-0.6-1.8c0-0.9,0.3-1.6,0.8-2c0.5-0.4,1.1-0.7,1.9-0.7c0.4,0,0.7,0.1,1,0.2c0.1,0.1,0.3,0.1,0.3,0.1
		c0.2,0,0.3-0.1,0.3-0.3h0.2l0.1,1.6h-0.2c-0.2-0.5-0.3-0.7-0.6-0.9c-0.3-0.3-0.7-0.4-1.1-0.4c-0.5,0-1,0.2-1.3,0.5
		c-0.4,0.4-0.6,1.1-0.6,1.9c0,1.4,0.8,2.3,2,2.3c0.6,0,1-0.2,1-0.5v-1.2c0-0.6-0.1-0.7-0.7-0.7v-0.1h2V16.8z"/>
	<path fill="#006837" d="M32.4,19.4v-0.1c0.3,0,0.3,0,0.4-0.1c0.1,0,0.1-0.1,0.1-0.2c0-0.1-0.1-0.3-0.1-0.5l-0.3-0.7h-2l-0.4,0.9
		c0,0.1-0.1,0.2-0.1,0.3c0,0.2,0.2,0.3,0.5,0.3v0.1H29v-0.1c0.4,0,0.5-0.2,1-1.3l1.6-3.8h0.2l1.9,4.4c0.2,0.5,0.3,0.7,0.7,0.7v0.1
		H32.4z M31.5,15.3l-0.9,2.1h1.8L31.5,15.3z"/>
	<path fill="#006837" d="M40.5,15.4c-0.1-0.7-0.3-0.8-1.2-0.8h-1c-0.2,0-0.3,0.1-0.3,0.3v1.7h1.1c0.7,0,0.8-0.1,0.9-0.7h0.2v1.8H40
		c-0.1-0.6-0.2-0.8-0.9-0.8H38v1.7c0,0.6,0.1,0.7,0.7,0.7v0.1h-2.2v-0.1c0.6,0,0.7-0.1,0.7-0.8v-3.3c0-0.6-0.1-0.7-0.7-0.7v-0.1h4.1
		l0,1.1H40.5z"/>
	<path fill="#006837" d="M40.8,19.4v-0.1c0.5,0,0.6-0.1,0.6-0.7v-1.8c0-0.4-0.1-0.5-0.3-0.5c-0.1,0-0.2,0-0.3,0v-0.1l1.2-0.4l0,0
		v2.7c0,0.6,0.1,0.7,0.6,0.7v0.1H40.8z M41.7,14.9c-0.2,0-0.4-0.2-0.4-0.4c0-0.2,0.2-0.4,0.4-0.4c0.2,0,0.4,0.2,0.4,0.4
		C42.1,14.7,41.9,14.9,41.7,14.9z"/>
	<path fill="#006837" d="M45,19.4l0-0.1c0.4,0,0.5-0.2,0.5-0.7V17c0-0.5-0.2-0.8-0.6-0.8c-0.3,0-0.4,0.1-0.8,0.4v2.1
		c0,0.3,0.1,0.4,0.5,0.4v0.1H43v-0.1c0.4,0,0.5-0.2,0.5-0.6v-1.9c0-0.4-0.1-0.5-0.3-0.5c-0.1,0-0.2,0-0.2,0v-0.1
		c0.4-0.1,0.7-0.2,1.1-0.3l0.1,0v0.6h0c0.4-0.5,0.8-0.6,1.1-0.6c0.6,0,0.9,0.4,0.9,1.2v1.7c0,0.4,0.1,0.5,0.5,0.5v0.1H45z"/>
	<path fill="#006837" d="M50.2,19.1c-0.2,0.3-0.4,0.4-0.7,0.4c-0.3,0-0.5-0.2-0.5-0.6h0c-0.4,0.5-0.8,0.6-1.1,0.6
		c-0.5,0-0.8-0.3-0.8-0.8c0-0.4,0.2-0.7,0.5-0.9c0.2-0.2,0.5-0.3,1.4-0.6v-0.4c0-0.5-0.3-0.7-0.6-0.7c-0.3,0-0.5,0.2-0.5,0.4
		c0,0.1,0,0.2,0,0.3c0,0.1-0.2,0.3-0.4,0.3c-0.2,0-0.3-0.1-0.3-0.4c0-0.2,0.1-0.4,0.4-0.6c0.2-0.1,0.5-0.2,0.9-0.2
		c0.4,0,0.7,0.1,0.9,0.3c0.2,0.2,0.2,0.4,0.2,0.9v1.5c0,0.4,0.1,0.5,0.2,0.5c0.1,0,0.2,0,0.3-0.1V19.1z M49,17.3
		c-0.5,0.2-0.8,0.3-1,0.5c-0.2,0.2-0.3,0.4-0.3,0.6c0,0.4,0.2,0.6,0.5,0.6c0.2,0,0.3,0,0.4-0.1c0.2-0.2,0.3-0.3,0.3-0.5V17.3z"/>
	<path fill="#006837" d="M53.4,18.3c-0.2,0.5-0.4,0.7-0.6,0.9c-0.3,0.2-0.6,0.3-0.9,0.3c-0.9,0-1.5-0.7-1.5-1.7
		c0-0.6,0.2-1.2,0.7-1.5c0.3-0.3,0.7-0.4,1-0.4c0.7,0,1.2,0.4,1.2,0.8c0,0.2-0.2,0.3-0.4,0.3c-0.2,0-0.3-0.1-0.4-0.4l0-0.2
		c-0.1-0.3-0.2-0.4-0.5-0.4c-0.6,0-1.1,0.5-1.1,1.3c0,0.9,0.5,1.5,1.2,1.5c0.4,0,0.7-0.2,1.1-0.7L53.4,18.3z"/>
	<path fill="#006837" d="M53.7,19.4v-0.1c0.5,0,0.6-0.1,0.6-0.7v-1.8c0-0.4-0.1-0.5-0.3-0.5c-0.1,0-0.2,0-0.3,0v-0.1l1.2-0.4l0,0
		v2.7c0,0.6,0.1,0.7,0.6,0.7v0.1H53.7z M54.6,14.9c-0.2,0-0.4-0.2-0.4-0.4c0-0.2,0.2-0.4,0.4-0.4c0.2,0,0.4,0.2,0.4,0.4
		C55,14.7,54.8,14.9,54.6,14.9z"/>
	<path fill="#006837" d="M59.2,19.1c-0.2,0.3-0.4,0.4-0.7,0.4c-0.3,0-0.5-0.2-0.5-0.6h0c-0.4,0.5-0.8,0.6-1.1,0.6
		c-0.5,0-0.8-0.3-0.8-0.8c0-0.4,0.2-0.7,0.5-0.9c0.2-0.2,0.5-0.3,1.4-0.6v-0.4c0-0.5-0.3-0.7-0.6-0.7c-0.3,0-0.5,0.2-0.5,0.4
		c0,0.1,0,0.2,0,0.3c0,0.1-0.2,0.3-0.4,0.3c-0.2,0-0.3-0.1-0.3-0.4c0-0.2,0.1-0.4,0.4-0.6c0.2-0.1,0.5-0.2,0.9-0.2
		c0.4,0,0.7,0.1,0.9,0.3c0.2,0.2,0.2,0.4,0.2,0.9v1.5c0,0.4,0.1,0.5,0.2,0.5c0.1,0,0.2,0,0.3-0.1V19.1z M58,17.3
		c-0.5,0.2-0.8,0.3-1,0.5c-0.2,0.2-0.3,0.4-0.3,0.6c0,0.4,0.2,0.6,0.5,0.6c0.2,0,0.3,0,0.4-0.1c0.2-0.2,0.3-0.3,0.3-0.5V17.3z"/>
	<path fill="#006837" d="M59.4,19.4v-0.1c0.5,0,0.6-0.2,0.6-0.6v-3.6c0-0.4-0.1-0.5-0.3-0.5c-0.1,0-0.2,0-0.3,0v-0.1
		c0.5-0.1,0.8-0.2,1.2-0.3l0,0v4.6c0,0.4,0.1,0.5,0.6,0.6v0.1H59.4z"/>
</g>
</svg>
